<?xml version="1.0" encoding="UTF-8" standalone="no"?>
<!-- Created with Inkscape (http://www.inkscape.org/) -->

<svg
   width="190.57588mm"
   height="41.972122mm"
   viewBox="0 0 190.57588 41.972122"
   version="1.1"
   id="svg5"
   xml:space="preserve"
   xmlns:inkscape="http://www.inkscape.org/namespaces/inkscape"
   xmlns:sodipodi="http://sodipodi.sourceforge.net/DTD/sodipodi-0.dtd"
   xmlns="http://www.w3.org/2000/svg"
   xmlns:svg="http://www.w3.org/2000/svg"><sodipodi:namedview
     id="namedview7"
     pagecolor="#ffffff"
     bordercolor="#000000"
     borderopacity="0.25"
     inkscape:showpageshadow="2"
     inkscape:pageopacity="0.0"
     inkscape:pagecheckerboard="0"
     inkscape:deskcolor="#d1d1d1"
     inkscape:document-units="mm"
     showgrid="false" /><defs
     id="defs2"><linearGradient
       id="swatch9"
       inkscape:swatch="solid"><stop
         style="stop-color:#000000;stop-opacity:1;"
         offset="0"
         id="stop9" /></linearGradient></defs><g
     inkscape:label="Calque 1"
     inkscape:groupmode="layer"
     id="layer1"
     transform="translate(-8.3490736,-53.090048)"><g
       inkscape:label="Calque 1"
       id="layer1-3"
       transform="translate(4.173675,-42.020927)"><path
         style="fill:#69956e;fill-opacity:1;stroke:none;stroke-width:1.28272;stroke-dasharray:none;stroke-opacity:0.967742"
         d="m 4.175399,136.88349 3.5929974,-2.39534 10.7789916,-13.77315 3.792607,2.59494 5.189886,-2.99416 7.185993,-1.59689 4.990277,-5.18988 3.393383,-2.19573 4.990271,3.593 6.387555,-0.99805 12.375874,11.37782 8.184049,0.79844 9.381716,10.97861 z"
         id="path1"
         sodipodi:nodetypes="cccccccccccccc" /><path
         style="opacity:1;fill:#69956e;fill-opacity:1;stroke:#69956e;stroke-width:0.7;stroke-linecap:round;stroke-dasharray:none;stroke-dashoffset:0;stroke-opacity:1"
         d="m 40.512172,107.57926 -6.677457,-6.69648"
         id="path3-1" /><path
         style="opacity:1;fill:#69956e;fill-opacity:1;stroke:#69956e;stroke-width:0.7;stroke-linecap:round;stroke-dasharray:none;stroke-dashoffset:0;stroke-opacity:1"
         d="M 43.197671,105.65768 39.230084,97.073433"
         id="path3-1-7" /><path
         style="opacity:1;fill:#69956e;fill-opacity:1;stroke:#69956e;stroke-width:0.7;stroke-linecap:round;stroke-dasharray:none;stroke-dashoffset:0;stroke-opacity:1"
         d="m 46.73677,104.91777 -0.0054,-9.456792"
         id="path3-1-7-7" /><path
         style="opacity:1;fill:#69956e;fill-opacity:1;stroke:#69956e;stroke-width:0.7;stroke-linecap:round;stroke-dasharray:none;stroke-dashoffset:0;stroke-opacity:1"
         d="m 50.280874,105.59912 3.967581,-8.58425"
         id="path3-1-7-2" /><path
         style="opacity:1;fill:#69956e;fill-opacity:1;stroke:#69956e;stroke-width:0.7;stroke-linecap:round;stroke-dasharray:none;stroke-dashoffset:0;stroke-opacity:1"
         d="m 30.100871,106.49353 8.660632,3.79798"
         id="path3-1-7-2-3" /><path
         style="opacity:1;fill:#69956e;fill-opacity:1;stroke:#69956e;stroke-width:0.7;stroke-linecap:round;stroke-dasharray:none;stroke-dashoffset:0;stroke-opacity:1"
         d="m 63.537834,106.39952 -8.660622,3.79798"
         id="path3-1-7-2-3-4" /><path
         style="opacity:1;fill:#69956e;fill-opacity:1;stroke:#69956e;stroke-width:0.7;stroke-linecap:round;stroke-dasharray:none;stroke-dashoffset:0;stroke-opacity:1"
         d="m 52.998905,107.48889 6.697661,-6.67626"
         id="path3-1-2" /><path
         style="opacity:1;fill:#69956e;fill-opacity:1;stroke:#69956e;stroke-width:0.7;stroke-linecap:round;stroke-dasharray:none;stroke-dashoffset:0;stroke-opacity:1"
         d="m 28.610091,112.89243 9.456692,0.0335"
         id="path3-5" /><path
         style="opacity:1;fill:#69956e;fill-opacity:1;stroke:#69956e;stroke-width:0.7;stroke-linecap:round;stroke-dasharray:none;stroke-dashoffset:0;stroke-opacity:1"
         d="m 55.508774,112.8994 9.456743,0.0335"
         id="path3-5-1" /><g
         aria-label="TrailKeepr"
         id="text9"
         style="font-weight:bold;font-size:21.1667px;font-family:'PT Serif';-inkscape-font-specification:'PT Serif, Bold';opacity:1;stroke-width:1.065;stroke-opacity:0.967742"><path
           d="m 98.23113,129.99789 h -7.281345 v -0.80433 q 0.423334,-0.16933 0.952502,-0.33867 0.550334,-0.1905 1.100668,-0.27516 v -12.02269 h -2.455337 l -1.354669,3.61951 h -0.867835 q -0.08467,-0.42334 -0.169333,-1.07951 -0.08467,-0.65616 -0.148167,-1.35467 -0.0635,-0.6985 -0.105834,-1.37583 -0.04233,-0.6985 -0.04233,-1.18534 h 13.48319 q 0,0.508 -0.0423,1.18534 -0.0423,0.67733 -0.10583,1.37583 -0.0635,0.69851 -0.14817,1.35467 -0.0847,0.635 -0.16933,1.07951 h -0.889001 l -1.354669,-3.61951 h -2.45538 v 12.02269 q 0.550334,0.10583 1.079502,0.254 0.550334,0.14816 0.973668,0.35983 z"
           style="fill:#363636"
           id="path1066" /><path
           d="m 107.16346,121.84871 q -0.254,0.127 -0.59267,0.42334 -0.33867,0.29633 -0.61383,0.97367 v 5.41867 q 0.42333,0.0423 0.84667,0.16934 0.42333,0.10583 0.84666,0.33866 v 0.8255 h -6.13834 v -0.8255 q 0.381,-0.21166 0.71967,-0.3175 0.33867,-0.10583 0.67733,-0.1905 v -7.74701 l -1.397,-0.16933 v -0.82551 q 0.33867,-0.14816 0.8255,-0.27516 0.508,-0.127 1.03717,-0.21167 0.52917,-0.10583 1.016,-0.16933 0.508,-0.0635 0.84667,-0.10584 h 0.71967 v 2.81517 h 0.0847 q 0.16934,-0.46566 0.48684,-0.97366 0.33867,-0.508 0.78317,-0.93134 0.4445,-0.42333 0.97366,-0.67733 0.52917,-0.254 1.10067,-0.23284 0.23284,0.29634 0.40217,0.84667 0.16933,0.52917 0.27517,1.016 v 0.8255 z"
           style="fill:#363636"
           id="path1068" /><path
           d="m 120.09631,126.92872 q 0,0.46567 0,0.80434 0.0212,0.33866 0.0635,0.71967 l 1.4605,0.21166 v 0.74084 q -0.254,0.127 -0.6985,0.254 -0.42333,0.127 -0.91017,0.254 -0.46567,0.10583 -0.93133,0.16933 -0.46567,0.0847 -0.82551,0.127 h -0.71966 q -0.21167,-0.48683 -0.254,-0.97367 -0.0423,-0.48683 -0.0635,-1.18533 h -0.10584 q -0.10583,0.42333 -0.35983,0.8255 -0.254,0.381 -0.65617,0.6985 -0.381,0.29633 -0.91017,0.48683 -0.52916,0.1905 -1.18533,0.1905 -0.6985,0 -1.29117,-0.21166 -0.59267,-0.21167 -1.03717,-0.59267 -0.4445,-0.381 -0.6985,-0.91017 -0.254,-0.55033 -0.254,-1.22767 0,-0.9525 0.35983,-1.56633 0.35984,-0.61384 1.12184,-0.99484 0.78317,-0.40216 1.98967,-0.59267 1.22767,-0.1905 2.96334,-0.27516 0.16933,-1.82034 -0.14817,-2.66701 -0.3175,-0.84666 -1.37584,-0.84666 -0.65616,0 -1.2065,0.21166 l -0.99483,2.54001 h -0.93134 q -0.16933,-0.254 -0.33866,-0.5715 -0.14817,-0.33867 -0.29634,-0.69851 -0.127,-0.381 -0.23283,-0.762 -0.0847,-0.381 -0.127,-0.74083 0.80433,-0.55034 2.07433,-0.86784 1.27001,-0.3175 2.68818,-0.3175 1.2065,0 1.9685,0.27517 0.762,0.254 1.18533,0.71967 0.4445,0.4445 0.61384,1.05833 0.16933,0.61384 0.16933,1.31234 0,1.27 -0.0635,2.30717 -0.0423,1.016 -0.0423,2.0955 z m -4.76251,1.62984 q 0.4445,0 0.762,-0.16933 0.3175,-0.16934 0.52917,-0.40217 0.23283,-0.23284 0.33867,-0.508 0.127,-0.27517 0.1905,-0.48684 v -2.11667 q -0.99484,0.0212 -1.62984,0.127 -0.635,0.10584 -0.99483,0.35984 -0.35984,0.23283 -0.50801,0.61383 -0.127,0.35984 -0.127,0.889 0,0.80434 0.38101,1.24884 0.381,0.4445 1.05833,0.4445 z"
           style="fill:#363636"
           id="path1070" /><path
           d="m 128.43597,129.99789 h -5.84201 v -0.8255 q 0.3175,-0.16933 0.65617,-0.27516 0.33867,-0.127 0.74083,-0.23284 v -7.74701 l -1.397,-0.16933 v -0.82551 q 0.3175,-0.127 0.78317,-0.254 0.48683,-0.127 1.016,-0.21166 0.52917,-0.10584 1.03717,-0.16934 0.508,-0.0847 0.889,-0.127 h 0.71967 v 9.50385 q 0.42333,0.10584 0.762,0.23284 0.33867,0.10583 0.635,0.27516 z m -4.80484,-14.05468 q 0,-0.74084 0.508,-1.16417 0.508,-0.42334 1.31234,-0.42334 0.80433,0 1.31233,0.42334 0.508,0.42333 0.508,1.16417 0,0.71966 -0.508,1.143 -0.508,0.42333 -1.31233,0.42333 -0.80434,0 -1.31234,-0.42333 -0.508,-0.42334 -0.508,-1.143 z"
           style="fill:#363636"
           id="path1072" /><path
           d="m 135.46333,129.99789 h -5.84201 v -0.8255 q 0.6985,-0.33866 1.397,-0.508 v -12.82702 l -1.60867,-0.16933 v -0.8255 q 0.27517,-0.127 0.762,-0.254 0.48684,-0.127 1.03717,-0.21167 0.5715,-0.10583 1.12184,-0.16933 0.5715,-0.0847 1.016,-0.127 h 0.71967 v 14.58385 q 0.6985,0.16934 1.397,0.508 z"
           style="fill:#363636"
           id="path1074" /><path
           d="m 144.43803,115.1812 h 5.67267 v 0.80434 q -0.35983,0.23283 -0.8255,0.40217 -0.46566,0.14816 -0.84666,0.21166 l -4.02168,5.10118 q 0.48684,0.67733 1.143,1.54517 0.65617,0.84666 1.39701,1.778 0.74083,0.91017 1.524,1.86267 0.78317,0.93133 1.524,1.778 l 1.016,0.61384 v 0.71966 h -3.683 l -0.84667,-0.59266 q -0.508,-0.635 -1.0795,-1.39701 -0.55034,-0.78316 -1.10067,-1.60866 -0.55034,-0.84667 -1.0795,-1.69334 -0.52917,-0.84667 -0.99484,-1.651 h -0.91017 v 5.52451 q 0.46567,0.0847 0.84667,0.254 0.381,0.16933 0.65617,0.35983 v 0.80433 h -6.41351 v -0.80433 q 0.42333,-0.21167 0.86783,-0.35983 0.4445,-0.16934 0.86784,-0.254 v -11.98036 q -0.48684,-0.0635 -0.9525,-0.23283 -0.4445,-0.16933 -0.78317,-0.381 v -0.80434 h 6.41351 v 0.80434 q -0.27517,0.16933 -0.67733,0.33867 -0.38101,0.16933 -0.82551,0.27516 v 5.37634 l 1.24884,-0.29633 3.40784,-5.08001 q -0.42334,-0.0847 -0.84667,-0.254 -0.40217,-0.1905 -0.6985,-0.35983 z"
           style="fill:#69956e"
           id="path1076" /><path
           d="m 160.37652,128.21989 q -0.16933,0.35984 -0.55033,0.74084 -0.35984,0.35983 -0.91017,0.65616 -0.52917,0.27517 -1.24884,0.4445 -0.6985,0.1905 -1.524,0.1905 -1.31233,0 -2.32834,-0.381 -1.016,-0.40216 -1.69333,-1.12183 -0.67734,-0.74084 -1.03717,-1.75684 -0.33867,-1.016 -0.33867,-2.286 0,-2.70934 1.41817,-4.12751 1.41817,-1.41817 3.93701,-1.41817 1.0795,0 2.01083,0.29634 0.95251,0.29633 1.56634,0.97367 0.635,0.67733 0.86783,1.778 0.254,1.10067 -0.0212,2.68817 h -6.49818 q 0.0212,1.67217 0.84667,2.667 0.84667,0.99484 2.4765,0.99484 0.6985,0 1.43934,-0.21167 0.762,-0.21167 1.18533,-0.55033 z m -4.36034,-7.85284 q -0.42333,0 -0.762,0.14816 -0.3175,0.14817 -0.5715,0.55034 -0.23284,0.381 -0.381,1.05833 -0.14817,0.65617 -0.21167,1.67217 h 3.40784 q 0.14817,-1.651 -0.1905,-2.54 -0.33867,-0.889 -1.29117,-0.889 z"
           style="fill:#69956e"
           id="path1078" /><path
           d="m 171.74306,128.21989 q -0.16934,0.35984 -0.55034,0.74084 -0.35983,0.35983 -0.91017,0.65616 -0.52916,0.27517 -1.24883,0.4445 -0.6985,0.1905 -1.524,0.1905 -1.31234,0 -2.32834,-0.381 -1.016,-0.40216 -1.69334,-1.12183 -0.67733,-0.74084 -1.03717,-1.75684 -0.33866,-1.016 -0.33866,-2.286 0,-2.70934 1.41817,-4.12751 1.41816,-1.41817 3.937,-1.41817 1.0795,0 2.01084,0.29634 0.9525,0.29633 1.56633,0.97367 0.63501,0.67733 0.86784,1.778 0.254,1.10067 -0.0212,2.68817 h -6.49817 q 0.0212,1.67217 0.84666,2.667 0.84667,0.99484 2.47651,0.99484 0.6985,0 1.43933,-0.21167 0.762,-0.21167 1.18534,-0.55033 z m -4.36034,-7.85284 q -0.42334,0 -0.76201,0.14816 -0.3175,0.14817 -0.5715,0.55034 -0.23283,0.381 -0.381,1.05833 -0.14816,0.65617 -0.21166,1.67217 h 3.40783 q 0.14817,-1.651 -0.1905,-2.54 -0.33866,-0.889 -1.29116,-0.889 z"
           style="fill:#69956e"
           id="path1080" /><path
           d="m 179.10908,134.23123 h -5.84201 v -0.8255 q 0.71967,-0.33866 1.397,-0.508 v -11.98035 l -1.397,-0.16933 v -0.82551 q 0.33867,-0.14816 0.8255,-0.27516 0.508,-0.127 1.03717,-0.21167 0.52917,-0.10583 1.016,-0.16933 0.508,-0.0635 0.84667,-0.10584 h 0.71967 v 2.37067 h 0.0212 q 0.35983,-1.016 1.12183,-1.69333 0.78317,-0.67734 2.159,-0.67734 0.93134,0 1.67217,0.3175 0.762,0.29634 1.27001,0.95251 0.52916,0.635 0.80433,1.651 0.29633,0.99483 0.29633,2.39184 0,1.3335 -0.381,2.413 -0.35983,1.0795 -1.05833,1.82034 -0.67734,0.74083 -1.67217,1.143 -0.97367,0.40216 -2.2225,0.40216 -0.71967,0 -1.14301,-0.10583 -0.40216,-0.0847 -0.86783,-0.3175 v 3.06917 q 0.33867,0.0423 0.67733,0.14817 0.33867,0.127 0.71967,0.35983 z m 0.67734,-13.37735 q -0.71967,0 -1.29117,0.508 -0.55034,0.508 -0.78317,1.56634 v 5.63034 q 0.33867,0.254 0.71967,0.381 0.381,0.10583 0.99483,0.10583 1.2065,0 1.778,-1.16417 0.57151,-1.16416 0.57151,-3.40783 0,-1.73567 -0.44451,-2.66701 -0.42333,-0.9525 -1.54516,-0.9525 z"
           style="fill:#69956e"
           id="path1082" /><path
           d="m 191.85142,121.84871 q -0.254,0.127 -0.59267,0.42334 -0.33867,0.29633 -0.61384,0.97367 v 5.41867 q 0.42334,0.0423 0.84667,0.16934 0.42334,0.10583 0.84667,0.33866 v 0.8255 h -6.13834 v -0.8255 q 0.381,-0.21166 0.71967,-0.3175 0.33866,-0.10583 0.67733,-0.1905 v -7.74701 l -1.397,-0.16933 v -0.82551 q 0.33867,-0.14816 0.8255,-0.27516 0.508,-0.127 1.03717,-0.21167 0.52916,-0.10583 1.016,-0.16933 0.508,-0.0635 0.84667,-0.10584 h 0.71966 v 2.81517 h 0.0847 q 0.16934,-0.46566 0.48684,-0.97366 0.33866,-0.508 0.78316,-0.93134 0.4445,-0.42333 0.97367,-0.67733 0.52917,-0.254 1.10067,-0.23284 0.23283,0.29634 0.40217,0.84667 0.16933,0.52917 0.27516,1.016 v 0.8255 z"
           style="fill:#69956e"
           id="path1084" /></g><path
         style="opacity:1;fill:none;fill-opacity:1;stroke:#ffffff;stroke-width:0.655;stroke-linecap:butt;stroke-linejoin:round;stroke-dasharray:1.31, 0.655;stroke-dashoffset:0;stroke-opacity:1"
         d="m 28.10063,134.73103 29.368753,-5.42395 -17.264065,-4.63021 7.011455,-6.74688 -4.167185,-5.75468"
         id="path20" /></g></g></svg>
